<?xml version="1.0" standalone="no"?><!DOCTYPE svg PUBLIC "-//W3C//DTD SVG 1.1//EN" "http://www.w3.org/Graphics/SVG/1.1/DTD/svg11.dtd"><svg t="1614654243170" class="icon" viewBox="0 0 1024 1024" version="1.1" xmlns="http://www.w3.org/2000/svg" p-id="12944" xmlns:xlink="http://www.w3.org/1999/xlink" width="200" height="200"><defs><style type="text/css"></style></defs><path d="M576 96a32 32 0 0 1 32 32v800H96V128a32 32 0 0 1 32-32h448m0-96H128a128 128 0 0 0-128 128v896h704V128a128 128 0 0 0-128-128z" fill="#4C4A58" p-id="12945"></path><path d="M896 588.16a32 32 0 0 1 32 32V928h-224V588.16h192m0-96h-288V1024h416V620.16a128 128 0 0 0-128-128zM523.2 975.04h-96v-133.76c0-43.52-26.24-80-57.6-80h-44.48c-32 0-57.92 36.48-57.92 80v133.76h-96v-133.76c0-96 69.12-176 153.92-176h44.48c84.8 0 153.6 78.72 153.6 176z" fill="#4C4A58" p-id="12946"></path><path d="M187.2 264.64m48 0l224 0q48 0 48 48l0 0q0 48-48 48l-224 0q-48 0-48-48l0 0q0-48 48-48Z" fill="#51C75B" p-id="12947"></path><path d="M187.2 439.68m48 0l224 0q48 0 48 48l0 0q0 48-48 48l-224 0q-48 0-48-48l0 0q0-48 48-48Z" fill="#51C75B" p-id="12948"></path></svg>