<?xml version="1.0" standalone="no"?><!DOCTYPE svg PUBLIC "-//W3C//DTD SVG 1.1//EN" "http://www.w3.org/Graphics/SVG/1.1/DTD/svg11.dtd"><svg t="1614655725715" class="icon" viewBox="0 0 1024 1024" version="1.1" xmlns="http://www.w3.org/2000/svg" p-id="20995" xmlns:xlink="http://www.w3.org/1999/xlink" width="200" height="200"><defs><style type="text/css"></style></defs><path d="M697.4 132.5H355.8c-40.3 0-73.2 32.9-73.2 73.2v634.5c0 40.3 32.9 73.2 73.2 73.2h341.6c40.3 0 73.2-32.9 73.2-73.2V205.7c0-40.3-32.9-73.2-73.2-73.2zM429 169.1h195.2v24.4H429v-24.4z m97.6 695.5c-27 0-48.8-21.9-48.8-48.8s21.9-48.8 48.8-48.8c27 0 48.8 21.9 48.8 48.8s-21.8 48.8-48.8 48.8z m195.2-146.5H331.4v-488h390.4v488z" fill="#2633D2" p-id="20996"></path><path d="M482.6 462.2c1.9 0 3.8-0.7 5.3-2.2l129.9-129.9c2.9-2.9 2.9-7.7 0-10.6-2.9-2.9-7.7-2.9-10.6 0L477.3 449.4c-2.9 2.9-2.9 7.7 0 10.6 1.4 1.5 3.3 2.2 5.3 2.2zM440.7 634c1.9 0 3.8-0.7 5.3-2.2L617.8 460c2.9-2.9 2.9-7.7 0-10.6-2.9-2.9-7.7-2.9-10.6 0L435.4 621.2c-2.9 2.9-2.9 7.7 0 10.6 1.5 1.5 3.4 2.2 5.3 2.2z" fill="#2633D2" p-id="20997"></path></svg>